<svg width="52" height="52" viewBox="0 0 52 52" fill="none" xmlns="http://www.w3.org/2000/svg">
<circle cx="26" cy="26" r="26" fill="#475569"/>
<path d="M34.3333 22.0417H29.3333C28.9916 22.0417 28.7083 21.7583 28.7083 21.4167C28.7083 21.075 28.9916 20.7917 29.3333 20.7917H34.3333C34.675 20.7917 34.9583 21.075 34.9583 21.4167C34.9583 21.7583 34.675 22.0417 34.3333 22.0417Z" fill="white"/>
<path d="M21 22.0417H17.6667C17.325 22.0417 17.0417 21.7583 17.0417 21.4167C17.0417 21.075 17.325 20.7917 17.6667 20.7917H21C21.3417 20.7917 21.625 21.075 21.625 21.4167C21.625 21.7583 21.3417 22.0417 21 22.0417Z" fill="white"/>
<path d="M24.3334 24.9583C22.3834 24.9583 20.7917 23.3667 20.7917 21.4167C20.7917 19.4667 22.3834 17.875 24.3334 17.875C26.2834 17.875 27.875 19.4667 27.875 21.4167C27.875 23.3667 26.2834 24.9583 24.3334 24.9583ZM24.3334 19.125C23.0667 19.125 22.0417 20.15 22.0417 21.4167C22.0417 22.6833 23.0667 23.7083 24.3334 23.7083C25.6 23.7083 26.625 22.6833 26.625 21.4167C26.625 20.15 25.6 19.125 24.3334 19.125Z" fill="white"/>
<path d="M34.3333 31.2083H31C30.6583 31.2083 30.375 30.925 30.375 30.5833C30.375 30.2417 30.6583 29.9583 31 29.9583H34.3333C34.675 29.9583 34.9583 30.2417 34.9583 30.5833C34.9583 30.925 34.675 31.2083 34.3333 31.2083Z" fill="white"/>
<path d="M22.6667 31.2083H17.6667C17.325 31.2083 17.0417 30.925 17.0417 30.5833C17.0417 30.2417 17.325 29.9583 17.6667 29.9583H22.6667C23.0084 29.9583 23.2917 30.2417 23.2917 30.5833C23.2917 30.925 23.0084 31.2083 22.6667 31.2083Z" fill="white"/>
<path d="M27.6667 34.125C25.7167 34.125 24.125 32.5333 24.125 30.5833C24.125 28.6333 25.7167 27.0417 27.6667 27.0417C29.6167 27.0417 31.2083 28.6333 31.2083 30.5833C31.2083 32.5333 29.6167 34.125 27.6667 34.125ZM27.6667 28.2917C26.4 28.2917 25.375 29.3167 25.375 30.5833C25.375 31.85 26.4 32.875 27.6667 32.875C28.9333 32.875 29.9583 31.85 29.9583 30.5833C29.9583 29.3167 28.9333 28.2917 27.6667 28.2917Z" fill="white"/>
</svg>
